<svg xmlns="http://www.w3.org/2000/svg" width="75" height="61" viewBox="0 0 75 61"><g fill="#FFF"><path d="M5.04 58.95S5.04 61 6.906 61h27.02s2-.184 2-1.984V47.942H5.04V58.95zM73.875 8.016H60.387c-.62-2.287-2.07-3.89-3.762-3.89h-7.542v12.75h7.542c1.69 0 3.14-1.605 3.762-3.892h13.488c.575 0 1.042-1.112 1.042-2.484s-.467-2.484-1.042-2.484zM2.103 0C.167 0 0 2.04 0 2.04v15.813l2.903 3.002h9.007l1.6 1.334S11.043 35.2 10.777 37.4c-.267 2.203-1.868 3.604-1.868 3.604s-2.135 1.2-3.002 1.668-.867 2.2-.867 2.2h30.888v-.733c0-1.468-6.472-3.136-9.073-3.403-2.602-.266-2.068-2.002-2.068-2.002l1.067-7.805h3.002l1.134-7.873h-3.002l.33-2.737 8.61-.13c5.805-.602 10.008-4.07 10.008-4.07V4.11C41.333.84 33.993 0 33.993 0H2.103zM36 4.938v.03c0 .55-.45 1-1 1H5.03c-.55 0-1-.45-1-1v-.03c0-.55.45-1 1-1H35c.55 0 1 .45 1 1z"/></g></svg>
