<svg xmlns="http://www.w3.org/2000/svg" width="59" height="72" viewBox="0 0 59 72"><g fill="#FFF"><path d="M58.34 20.545c-.566-.753-1.454-1.195-2.396-1.195h-38.67L14.8 11.965H3.057c-1.657 0-3 1.343-3 3s1.343 3 3 3h7.424l13.5 40.285h25.16c1.656 0 3-1.343 3-3s-1.344-3-3-3H28.298l-1.727-5.15h23.12c1.338 0 2.514-.885 2.884-2.17l6.25-21.75c.26-.907.08-1.882-.487-2.635zm-7.78 9.68h-4.81V25.35h6.21l-1.4 4.876zm-17.618 0V25.35h6.807v4.875H32.94zm6.807 6v4.876H32.94v-4.874h6.807zM26.94 25.35v4.875H20.92l-1.635-4.875h7.657zM22.93 36.226h4.012V41.1h-2.38l-1.633-4.874zM45.75 41.1v-4.874h3.085l-1.4 4.875h-1.686z"/><circle cx="27.406" cy="66.094" r="5.781"/><circle cx="44.844" cy="66.094" r="5.781"/><path d="M29.335 9.7l7.547 5.49c.914.666 2.174.442 2.818-.493.646-.936.43-2.232-.48-2.895l-2.373-1.726 9.436-5.09L50.91 17h4.348L49.214 1.31c-.21-.55-.64-.98-1.177-1.184-.536-.205-1.135-.166-1.643.11L33.146 7.38l-3.022-2.2c-.872-.633-2.07-.46-2.742.39l-8.48 10.8c-.17.18-.306.394-.406.627h5.106l5.733-7.3z"/></g></svg>
