<svg xmlns="http://www.w3.org/2000/svg" width="78" height="62" viewBox="0 0 78 62"><g fill="#FFF"><path d="M16.125 29.75C7.22 29.75 0 36.967 0 45.874 0 54.78 7.22 62 16.125 62S32.25 54.78 32.25 45.875c0-8.907-7.22-16.126-16.125-16.126zm0 23.432c-4.036 0-7.307-3.27-7.307-7.307 0-4.037 3.27-7.308 7.307-7.308s7.307 3.27 7.307 7.308c0 4.035-3.27 7.307-7.307 7.307zM60.854 45.874c-4.453 0-8.062 3.61-8.062 8.062 0 4.453 3.61 8.063 8.062 8.063s8.062-3.61 8.062-8.064c0-4.452-3.608-8.062-8.062-8.062zm0 13.126c-2.796 0-5.062-2.268-5.062-5.063s2.267-5.062 5.062-5.062 5.062 2.268 5.062 5.062c0 2.795-2.266 5.063-5.062 5.063z"/><path d="M77.898 49.727s-2.023-15.102-2.46-18.414c-.548-4.14-3.626-4.688-3.626-4.688L66 25.945V14h-3v5.833h-4v5.295L47.188 23.75S37.438 3.688 36.626 1.875 33.5 0 33.5 0 11.125 2.375 8.75 3 5.312 6.167 5.312 6.167c-2.308 6.37-2.31 17.296-2.266 20.255 3.736-2.517 8.236-3.986 13.08-3.986 12.943 0 23.437 10.493 23.437 23.44 0 2.437-.373 4.788-1.064 7h10.163c.39-6.403 5.69-11.48 12.19-11.48s11.803 5.077 12.192 11.48H75c3.64 0 2.898-3.15 2.898-3.15zM23.083 19.833h-6.958V6.167h6.958v13.666zm10 0h-6.958V6.167h6.958v13.666zM53.016 36H49v-7h4.016v7zm7 0H56v-7h4.016v7zm7 0H63v-7h4.016v7z"/></g></svg>
