<svg xmlns="http://www.w3.org/2000/svg" xmlns:xlink="http://www.w3.org/1999/xlink" width="78" height="63" viewBox="0 0 78 63"><image overflow="visible" width="78" height="63" xlink:href="icon-5.png"/><g fill="#FFF"><circle cx="25.983" cy="55.5" r="7.5"/><circle cx="59.982" cy="55.5" r="7.5"/><path d="M64 0H11.062l-3 3.125V8H3.47C1.552 8 0 9.553 0 11.47s1.553 3.468 3.47 3.468l28.084 1.84.196.043c-.76 3.198-8.938 3.806-8.938 3.806l-8.31.428H5.446c-1.864 0-3.375 1.51-3.375 3.375s1.512 3.374 3.376 3.374l23.656 1.254c-.807 3.153-6.29 3.756-6.29 3.756l-14.75.76V49.19c0 3.187 2.563 3.81 2.563 3.81h2.1c1.172-6.26 6.658-11 13.258-11s12.085 4.74 13.26 11h7.403c1.174-6.26 6.66-11 13.26-11s12.086 4.74 13.26 11h1.71C77.81 53 78 48.94 78 48.94v-15.25C78 14.812 64 0 64 0zM52 23.938v-15h10.062l5.75 15H52z"/></g></svg>
