<svg xmlns="http://www.w3.org/2000/svg" width="44" height="65" viewBox="0 0 44 65"><g fill="#FFF"><path d="M37.91 30.438v10.87s.105 2.734-2.825 2.734c-3.07 0-3.125-2.735-3.125-2.735V34.89s-.336-1.908-2.32-1.908c-2.624 0-2.67 1.877-2.67 1.877v19.22s.03 1.863-2.463 1.863C22 55.943 22 53.96 22 53.96V40.016s0-2.945-3.805-2.945c-4.054 0-3.967 3.126-3.967 3.126v3.728s-.12 2.945-4.688 2.945-4.628-4.51-4.628-4.51V29.938C3.168 28.976 0 26.67 0 26.67v29.333S2.988 65 22 65s22-8.695 22-8.695V26.67c-2.938 2.83-6.09 3.768-6.09 3.768z"/><path d="M22 0C1.688 0 0 19.875 0 19.875v3.062C8.438 29.187 22 29 22 29s13.562.188 22-6.062v-3.062S42.312 0 22 0zm0 25c-11.75 0-14.312-2.375-14.312-2.375C13.938 19.75 22 19.875 22 19.875s8.062-.125 14.312 2.75c0 0-2.562 2.375-14.312 2.375zm0-12.375c-9.562 0-17.688 2.938-17.688 2.938C8.875 2.625 22 3.063 22 3.063s13.125-.44 17.688 12.5c0 0-8.126-2.938-17.688-2.938z"/></g></svg>
