<svg xmlns="http://www.w3.org/2000/svg" width="15" height="12" viewBox="0 0 15 12"><g fill="#C1C6CE"><path d="M3 8v4h4V8h2v4h4V8L8 3.516"/><path d="M14.83 6.365L13 4.75V0h-2v2.987L8.332.635C8.312.618 8.29.612 8.268.598 8.242.58 8.216.563 8.188.55 8.156.54 8.125.534 8.093.528 8.063.52 8.033.515 8 .515c-.03 0-.06.006-.092.012-.033.006-.063.012-.095.025-.028.01-.053.03-.08.046-.02.014-.045.02-.064.037l-6.5 5.73c-.206.183-.226.5-.044.706.1.113.237.17.375.17.12 0 .237-.04.332-.125L8 1.677l6.17 5.438c.095.084.213.125.33.125.14 0 .276-.058.375-.17.183-.206.163-.522-.044-.705z"/></g></svg>
