<svg xmlns="http://www.w3.org/2000/svg" width="19" height="19" viewBox="0 0 19 19"><path fill="#B7BFC8" d="M15.572 18.985h-.94c-4.13-.488-7.158-2.408-9.36-4.864C3.062 11.66 1.318 8.493.978 4.23V3.084c.078-.774.46-1.304.898-1.757C2.426.767 3.25.044 4.002.02c.554-.02 1.5.38 1.88.898.328.446.503 1.34.655 2.003.154.672.505 1.644.408 2.29-.148 1.007-1.487 1.434-1.88 2.166 1.308 3.135 3.444 5.44 6.294 7.03.714-.39 1.345-1.57 2.33-1.594.36-.01.82.178 1.185.286.402.12.75.275 1.104.408.595.224 1.647.52 2.003 1.02.365.514.57 1.357.49 1.88-.164 1.04-1.88 2.197-2.9 2.58z"/></svg>
